<?xml version="1.0" encoding="utf-8"?>
<!-- Generator: Adobe Illustrator 21.0.2, SVG Export Plug-In . SVG Version: 6.00 Build 0)  -->
<svg xmlns="http://www.w3.org/2000/svg" xmlns:xlink="http://www.w3.org/1999/xlink" version="1.1" id="Layer_1" x="0px" y="0px" viewBox="0 0 48 48" style="enable-background:new 0 0 48 48;" xml:space="preserve" width="48px" height="48px">
<g id="surface1">
	<path style="fill:#FFC107;" d="M9,42h23l10-10V9c0-1.7-1.3-3-3-3H9C7.3,6,6,7.3,6,9v30C6,40.7,7.3,42,9,42z"/>
	<path style="fill:#FFECB3;" d="M32,42V32h10L32,42z"/>
	<path style="fill:#FFFFFF;" d="M28,36h-8v-7.9c-3.1-1.5-5-4.6-5-8.1c0-5,4-9,9-9c5,0,9,4,9,9c0,3.5-1.9,6.5-5,8.1V36z M22,34h4   v-7.3l0.6-0.3c2.7-1.1,4.4-3.6,4.4-6.5c0-3.9-3.1-7-7-7c-3.9,0-7,3.1-7,7c0,2.9,1.7,5.4,4.4,6.5l0.6,0.3V34z"/>
	<path style="fill:#FFFFFF;" d="M22,35h4v3h-4V35z"/>
	<rect x="21" y="30" style="fill:#FFFFFF;" width="6" height="2"/>
</g>
</svg>
